<?xml version="1.0" encoding="UTF-8"?>
<svg id="Camada_2" data-name="Camada 2" xmlns="http://www.w3.org/2000/svg" xmlns:xlink="http://www.w3.org/1999/xlink" viewBox="0 0 1484.67 1484.67">
  <defs>
    <style>
      .cls-1 {
        fill: #242424;
      }

      .cls-2 {
        fill: #4dd168;
      }

      .cls-3 {
        fill: url(#Green);
      }
    </style>
    <linearGradient id="Green" x1="219.19" y1="219.19" x2="1265.47" y2="1265.47" gradientUnits="userSpaceOnUse">
      <stop offset="0" stop-color="#34ca53"/>
      <stop offset="1" stop-color="#00be00"/>
    </linearGradient>
  </defs>
  <g id="Logo">
    <g id="Circle_Green" data-name="Circle Green">
      <path class="cls-3" d="M742.33,1482.17c-99.88,0-196.77-19.56-287.98-58.14-88.1-37.26-167.22-90.61-235.17-158.55-67.95-67.95-121.29-147.07-158.55-235.17C22.06,939.1,2.5,842.21,2.5,742.33s19.56-196.77,58.14-287.98c37.26-88.1,90.61-167.22,158.55-235.17,67.95-67.95,147.07-121.29,235.17-158.55C545.57,22.06,642.45,2.5,742.33,2.5s196.77,19.56,287.98,58.14c88.1,37.26,167.22,90.61,235.17,158.55,67.95,67.95,121.29,147.07,158.55,235.17,38.58,91.21,58.14,188.1,58.14,287.98s-19.56,196.77-58.14,287.98c-37.26,88.1-90.61,167.22-158.55,235.17s-147.07,121.29-235.17,158.55c-91.21,38.58-188.1,58.14-287.98,58.14Z"/>
      <path class="cls-2" d="M742.33,5c99.54,0,196.1,19.49,287,57.94,43.69,18.48,85.83,41.35,125.24,67.98,39.04,26.38,75.76,56.67,109.13,90.04,33.37,33.37,63.66,70.08,90.04,109.13,26.63,39.42,49.5,81.56,67.98,125.24,38.45,90.9,57.94,187.46,57.94,287s-19.49,196.1-57.94,287c-18.48,43.69-41.35,85.83-67.98,125.24-26.38,39.04-56.67,75.76-90.04,109.13-33.37,33.37-70.08,63.66-109.13,90.04-39.42,26.63-81.56,49.5-125.24,67.98-90.9,38.45-187.46,57.94-287,57.94s-196.1-19.49-287-57.94c-43.69-18.48-85.83-41.35-125.24-67.98-39.04-26.38-75.76-56.67-109.13-90.04-33.37-33.37-63.66-70.08-90.04-109.13-26.63-39.42-49.5-81.56-67.98-125.24C24.49,938.44,5,841.88,5,742.33s19.49-196.1,57.94-287c18.48-43.69,41.35-85.83,67.98-125.24,26.38-39.04,56.67-75.76,90.04-109.13,33.37-33.37,70.08-63.66,109.13-90.04,39.42-26.63,81.56-49.5,125.24-67.98C546.23,24.49,642.79,5,742.33,5h0M742.33,0h0C332.35,0,0,332.35,0,742.33h0c0,409.98,332.35,742.33,742.33,742.33h0c409.98,0,742.33-332.35,742.33-742.33h0C1484.67,332.35,1152.31,0,742.33,0h0Z"/>
    </g>
    <g id="Circle">
      <path class="cls-1" d="M748,1353.31c-70.09,0-139.25-12.09-206.05-36.07-77.57-27.85-147.41-70.09-207.58-125.56-58.07-53.54-104.67-117.05-138.49-188.76-33.83-71.71-53.2-148.06-57.58-226.93-4.54-81.71,7.28-162.47,35.13-240.04,27.85-77.57,70.09-147.41,125.56-207.58,53.54-58.07,117.05-104.67,188.76-138.49,71.71-33.82,148.06-53.2,226.93-57.58,81.71-4.54,162.47,7.28,240.04,35.13,77.49,27.82,147.26,70,207.39,125.39,40.62,37.42,43.22,100.68,5.8,141.3-37.42,40.62-100.68,43.22-141.3,5.8-40.36-37.17-87.28-65.52-139.46-84.25-213.21-76.54-448.94,34.65-525.48,247.86-76.54,213.21,34.65,448.94,247.86,525.48,103.28,37.08,214.82,31.72,314.07-15.1,99.25-46.81,174.33-129.48,211.41-232.76,18.73-52.18,26.7-106.42,23.68-161.21-3.04-55.15,39.2-102.31,94.34-105.35,55.12-3.05,102.31,39.2,105.35,94.34,4.5,81.63-7.32,162.3-35.14,239.79-27.85,77.57-70.09,147.41-125.56,207.58-53.54,58.07-117.05,104.67-188.76,138.5-71.71,33.83-148.06,53.2-226.93,57.58-11.35.63-22.68.95-33.99.95Z"/>
    </g>
    <g id="Line_2" data-name="Line 2">
      <path class="cls-1" d="M748.33,735.8c-24.85,0-45-20.15-45-45v-187.25c0-24.85,20.15-45,45-45s45,20.15,45,45v187.25c0,24.85-20.15,45-45,45Z"/>
    </g>
    <g id="Line_1" data-name="Line 1">
      <path class="cls-1" d="M748.09,1013.54c-14.08,0-28.16-5.38-38.89-16.11l-167.04-167.04c-21.48-21.48-21.48-56.3,0-77.78,21.48-21.48,56.3-21.48,77.78,0l128.62,128.62,421.02-410.88c21.74-21.21,56.56-20.79,77.78.95,21.21,21.74,20.79,56.56-.95,77.78l-459.91,448.83c-10.69,10.43-24.55,15.64-38.41,15.64Z"/>
    </g>
  </g>
</svg>