<?xml version="1.0" encoding="UTF-8"?>
<svg id="Camada_2" data-name="Camada 2" xmlns="http://www.w3.org/2000/svg" viewBox="0 0 117.33 106.68">
  <g id="Camada_1-2" data-name="Camada 1">
    <path d="M5.33,26.67c-1.36,0-2.73-.52-3.77-1.56-2.08-2.08-2.08-5.46,0-7.54L17.56,1.56c2.08-2.08,5.46-2.08,7.54,0,2.08,2.08,2.08,5.46,0,7.54L9.1,25.1c-1.04,1.04-2.41,1.56-3.77,1.56Z"/>
    <path d="M112,26.67c-1.37,0-2.73-.52-3.77-1.56l-16-16c-2.08-2.08-2.08-5.46,0-7.54,2.08-2.08,5.46-2.08,7.54,0l16,16c2.08,2.08,2.08,5.46,0,7.54-1.04,1.04-2.41,1.56-3.77,1.56Z"/>
    <path d="M97.99,87.9c7.08-8.72,11.34-19.82,11.34-31.9,0-27.94-22.73-50.67-50.67-50.67S8,28.06,8,56c0,12.14,4.3,23.29,11.44,32.03l-9.82,9.49c-2.12,2.05-2.18,5.42-.13,7.54,1.05,1.08,2.44,1.63,3.84,1.63s2.67-.5,3.71-1.5l9.99-9.65c8.68,6.96,19.68,11.13,31.64,11.13s23.07-4.22,31.77-11.24l9.81,9.69c1.04,1.03,2.39,1.54,3.75,1.54s2.75-.53,3.79-1.59c2.07-2.1,2.05-5.47-.05-7.54l-9.75-9.63ZM53.33,32c0-2.95,2.39-5.33,5.33-5.33s5.33,2.39,5.33,5.33v21.79l9.11,9.1c2.08,2.08,2.08,5.46,0,7.54-1.04,1.04-2.41,1.56-3.77,1.56s-2.73-.52-3.77-1.56l-10.67-10.67c-1-1-1.56-2.36-1.56-3.77v-24Z"/>
  </g>
</svg>