<?xml version="1.0" encoding="UTF-8"?>
<svg id="Camada_2" data-name="Camada 2" xmlns="http://www.w3.org/2000/svg" viewBox="0 0 122.63 125.75">
  <defs>
    <style>
      .cls-1 {
        stroke: #000;
        stroke-miterlimit: 10;
      }
    </style>
  </defs>
  <g id="Camada_1-2" data-name="Camada 1">
    <path class="cls-1" d="M117.51,78.64l-6.43-7.19c-1.57-1.99-2.69-5.46-2.69-8.58s1.12-6.59,2.69-8.58l6.43-7.19c2.92-3.25,4.38-4.87,4.59-6.89.21-2.02-.88-3.91-3.06-7.7l-3.08-5.34c-2.33-4.04-3.49-6.06-5.47-6.87-1.98-.81-4.22-.17-8.7,1.1l-7.61,2.14c-2.86.66-5.86.29-8.47-1.06l-2.1-1.21c-2.24-1.43-3.96-3.55-4.92-6.04l-2.08-6.22c-1.37-4.12-2.05-6.18-3.69-7.35-1.63-1.18-3.8-1.18-8.13-1.18h-6.95c-4.33,0-6.5,0-8.13,1.18-1.63,1.18-2.32,3.24-3.68,7.35l-2.08,6.22c-.95,2.49-2.68,4.6-4.92,6.04l-2.1,1.21c-2.61,1.34-5.61,1.72-8.47,1.06l-7.61-2.14c-4.48-1.27-6.72-1.91-8.7-1.1-1.98.81-3.15,2.83-5.47,6.87l-3.08,5.34c-2.18,3.79-3.27,5.68-3.06,7.7.21,2.02,1.67,3.64,4.59,6.89l6.43,7.19c1.57,1.99,2.69,5.46,2.69,8.58s-1.12,6.59-2.69,8.58l-6.43,7.19c-2.92,3.25-4.38,4.87-4.59,6.89-.21,2.02.88,3.91,3.06,7.7l3.08,5.34c2.33,4.04,3.49,6.06,5.47,6.87,1.98.81,4.22.17,8.7-1.1l7.61-2.14c2.86-.66,5.86-.29,8.48,1.06l2.1,1.21c2.24,1.43,3.96,3.55,4.92,6.04l2.08,6.22c1.37,4.12,2.05,6.18,3.68,7.35,1.63,1.18,3.8,1.18,8.13,1.18h6.95c4.33,0,6.5,0,8.13-1.18,1.63-1.18,2.32-3.24,3.69-7.35l2.08-6.22c.95-2.49,2.68-4.6,4.92-6.04l2.1-1.21c2.61-1.34,5.61-1.72,8.47-1.06l7.61,2.14c4.48,1.27,6.72,1.91,8.7,1.1,1.98-.81,3.14-2.83,5.47-6.87l3.08-5.34c2.18-3.79,3.27-5.68,3.06-7.7-.21-2.02-1.67-3.64-4.59-6.89ZM61.05,84.66c-12.06,0-21.83-9.77-21.83-21.83s9.77-21.83,21.83-21.83,21.83,9.77,21.83,21.83-9.77,21.83-21.83,21.83Z"/>
  </g>
</svg>