<svg width="14" height="13" viewBox="0 0 14 13" fill="none" xmlns="http://www.w3.org/2000/svg">
<path d="M12.9748 0.951845C11.9497 0 10.3 0 7.00069 0C3.70137 0 2.05033 0 1.02516 0.951845C0 1.90369 0 3.43537 0 6.5C0 9.56463 0 11.0963 1.02516 12.0482C2.05033 13 3.69999 13 7.00069 13C10.3014 13 11.951 13 12.9762 12.0482C14.0014 11.0963 14.0014 9.56463 14.0014 6.5C14.0014 3.43537 14.0014 1.90369 12.9762 0.951845H12.9748ZM3.9846 4.92214C4.31205 4.69765 4.77351 4.76307 5.01529 5.0671C5.42287 5.58151 5.87605 6.0895 6.26428 6.48332V3.07874C6.26428 2.70032 6.59449 2.39501 7.00069 2.39501C7.40688 2.39501 7.73709 2.7016 7.73709 3.07874V6.48332C8.12533 6.09078 8.5785 5.58151 8.98608 5.0671C9.22787 4.76307 9.68933 4.69765 10.0168 4.92214C10.3442 5.14664 10.4147 5.57509 10.1729 5.87912C8.0521 8.5525 7.26043 8.5525 7.00069 8.5525C6.74094 8.5525 5.94927 8.5525 3.82848 5.87912C3.5867 5.57509 3.65716 5.14664 3.9846 4.92214ZM9.5788 10.605H4.4212C4.01362 10.605 3.68479 10.2984 3.68479 9.92126C3.68479 9.54411 4.015 9.23752 4.4212 9.23752H9.5788C9.98638 9.23752 10.3152 9.54411 10.3152 9.92126C10.3152 10.2984 9.98499 10.605 9.5788 10.605Z" fill="#172021"/>
</svg>
